<?xml version="1.0" encoding="UTF-8"?>
<!DOCTYPE svg PUBLIC "-//W3C//DTD SVG 1.1//EN" "http://www.w3.org/Graphics/SVG/1.1/DTD/svg11.dtd">
<svg version="1.1" xmlns="http://www.w3.org/2000/svg" xmlns:xlink="http://www.w3.org/1999/xlink" x="0" y="0" width="35" height="35" viewBox="0, 0, 35, 35">
  <g id="Layer_1">
    <path d="M26.165,28.879 L26.089,28.802 L26.012,28.727 L25.935,28.649 L25.859,28.574 L25.782,28.497 L25.706,28.421 L25.629,28.344 L25.553,28.268 L25.772,28.049 L25.991,27.83 L26.209,27.612 L26.427,27.393 L26.646,27.175 L26.864,26.957 L27.082,26.738 L27.302,26.52 L27.377,26.595 L27.454,26.673 L27.53,26.748 L27.607,26.825 L27.683,26.901 L27.76,26.978 L27.836,27.056 L27.913,27.131 L27.694,27.35 L27.476,27.569 L27.258,27.786 L27.038,28.005 L26.82,28.224 L26.602,28.442 L26.383,28.66 z" fill="#467FF7"/>
    <path d="M26.665,29.379 L26.589,29.302 L26.512,29.227 L26.435,29.149 L26.359,29.074 L26.282,28.997 L26.206,28.921 L26.129,28.844 L26.053,28.768 L26.272,28.549 L26.491,28.33 L26.709,28.112 L26.927,27.893 L27.146,27.675 L27.364,27.457 L27.582,27.238 L27.802,27.02 L27.877,27.095 L27.954,27.173 L28.03,27.248 L28.107,27.325 L28.183,27.401 L28.26,27.478 L28.336,27.556 L28.413,27.631 L28.194,27.85 L27.976,28.069 L27.758,28.286 L27.538,28.505 L27.32,28.724 L27.102,28.942 L26.883,29.16 z" fill-opacity="0" stroke="#007FFF" stroke-width="1.5"/>
    <path d="M23.543,31.5 L23.466,31.424 L23.39,31.347 L23.313,31.271 L23.238,31.194 L23.16,31.118 L23.085,31.041 L23.008,30.965 L22.932,30.888 L23.15,30.67 L23.368,30.452 L23.587,30.233 L23.805,30.015 L24.023,29.796 L24.243,29.577 L24.461,29.36 L24.679,29.141 L24.756,29.217 L24.831,29.294 L24.909,29.37 L24.984,29.447 L25.062,29.523 L25.137,29.6 L25.214,29.676 L25.29,29.753 L25.072,29.971 L24.854,30.189 L24.635,30.408 L24.417,30.626 L24.199,30.845 L23.979,31.064 L23.762,31.281 z" fill="#467FF7"/>
    <path d="M24.043,32 L23.966,31.924 L23.89,31.847 L23.813,31.771 L23.738,31.694 L23.66,31.618 L23.585,31.541 L23.508,31.465 L23.432,31.388 L23.65,31.17 L23.868,30.952 L24.087,30.733 L24.305,30.515 L24.523,30.296 L24.743,30.077 L24.961,29.86 L25.179,29.641 L25.256,29.717 L25.331,29.794 L25.409,29.87 L25.484,29.947 L25.562,30.023 L25.637,30.1 L25.714,30.176 L25.79,30.253 L25.572,30.471 L25.354,30.689 L25.135,30.908 L24.917,31.126 L24.699,31.345 L24.479,31.564 L24.262,31.781 z" fill-opacity="0" stroke="#007FFF" stroke-width="1.5"/>
    <path d="M20.37,28.006 L20.294,27.929 L20.217,27.853 L20.141,27.776 L20.064,27.7 L19.988,27.623 L19.911,27.547 L19.835,27.47 L19.758,27.393 L20.96,26.193 L22.162,24.991 L23.364,23.789 L24.564,22.589 L25.766,21.387 L26.968,20.185 L28.17,18.983 L29.372,17.783 L29.447,17.858 L29.524,17.936 L29.6,18.011 L29.677,18.088 L29.753,18.164 L29.83,18.241 L29.906,18.317 L29.983,18.394 L28.781,19.595 L27.579,20.796 L26.378,21.998 L25.176,23.2 L23.975,24.401 L22.773,25.602 L21.572,26.804 z" fill="#467FF7"/>
    <path d="M20.87,28.506 L20.794,28.429 L20.717,28.353 L20.641,28.276 L20.564,28.2 L20.488,28.123 L20.411,28.047 L20.335,27.97 L20.258,27.893 L21.46,26.693 L22.662,25.491 L23.864,24.289 L25.064,23.089 L26.266,21.887 L27.468,20.685 L28.67,19.483 L29.872,18.283 L29.947,18.358 L30.024,18.436 L30.1,18.511 L30.177,18.588 L30.253,18.664 L30.33,18.741 L30.406,18.817 L30.483,18.894 L29.281,20.095 L28.079,21.296 L26.878,22.498 L25.676,23.7 L24.475,24.901 L23.273,26.102 L22.072,27.304 z" fill-opacity="0" stroke="#007FFF" stroke-width="1.5"/>
    <path d="M16.325,25.384 L16.247,25.307 L16.172,25.232 L16.095,25.154 L16.019,25.079 L15.942,25.001 L15.866,24.926 L15.789,24.849 L15.713,24.773 L17.022,23.462 L18.333,22.151 L19.644,20.84 L20.955,19.529 L22.266,18.219 L23.576,16.908 L24.887,15.598 L26.198,14.288 L26.274,14.363 L26.351,14.441 L26.427,14.516 L26.504,14.593 L26.58,14.669 L26.657,14.746 L26.733,14.822 L26.81,14.899 L25.499,16.21 L24.188,17.52 L22.877,18.831 L21.567,20.141 L20.256,21.452 L18.945,22.763 L17.635,24.074 z" fill="#467FF7"/>
    <path d="M16.825,25.884 L16.747,25.807 L16.672,25.732 L16.595,25.654 L16.519,25.579 L16.442,25.501 L16.366,25.426 L16.289,25.349 L16.213,25.273 L17.522,23.962 L18.833,22.651 L20.144,21.34 L21.455,20.029 L22.766,18.719 L24.076,17.408 L25.387,16.098 L26.698,14.788 L26.774,14.863 L26.851,14.941 L26.927,15.016 L27.004,15.093 L27.08,15.169 L27.157,15.246 L27.233,15.322 L27.31,15.399 L25.999,16.71 L24.688,18.02 L23.377,19.331 L22.067,20.641 L20.756,21.952 L19.445,23.263 L18.135,24.574 z" fill-opacity="0" stroke="#007FFF" stroke-width="1.5"/>
    <path d="M30.627,4.414 L30.549,4.338 L30.474,4.261 L30.396,4.185 L30.321,4.108 L30.244,4.032 L30.168,3.955 L30.091,3.879 L30.015,3.802 L30.124,3.693 L30.233,3.584 L30.342,3.475 L30.451,3.366 L30.56,3.257 L30.669,3.147 L30.779,3.038 L30.888,2.929 L30.965,3.006 L31.041,3.081 L31.117,3.159 L31.194,3.234 L31.27,3.311 L31.347,3.387 L31.423,3.464 L31.5,3.54 L31.391,3.65 L31.282,3.759 L31.172,3.869 L31.063,3.978 L30.954,4.086 L30.845,4.196 L30.735,4.305 z" fill="#467FF7"/>
    <path d="M31.127,4.914 L31.049,4.838 L30.974,4.761 L30.896,4.685 L30.821,4.608 L30.744,4.532 L30.668,4.455 L30.591,4.379 L30.515,4.302 L30.624,4.193 L30.733,4.084 L30.842,3.975 L30.951,3.866 L31.06,3.757 L31.169,3.647 L31.279,3.538 L31.388,3.429 L31.465,3.506 L31.541,3.581 L31.617,3.659 L31.694,3.734 L31.77,3.811 L31.847,3.887 L31.923,3.964 L32,4.04 L31.891,4.15 L31.782,4.259 L31.672,4.369 L31.563,4.478 L31.454,4.586 L31.345,4.696 L31.235,4.805 z" fill-opacity="0" stroke="#007FFF" stroke-width="1.5"/>
    <path d="M27.131,7.909 L27.054,7.833 L26.979,7.756 L26.901,7.68 L26.826,7.603 L26.748,7.527 L26.673,7.45 L26.596,7.374 L26.52,7.297 L26.629,7.188 L26.738,7.079 L26.847,6.97 L26.956,6.861 L27.065,6.751 L27.175,6.642 L27.284,6.533 L27.393,6.424 L27.469,6.501 L27.546,6.576 L27.622,6.654 L27.699,6.729 L27.775,6.807 L27.852,6.882 L27.929,6.959 L28.005,7.035 L27.896,7.145 L27.787,7.253 L27.678,7.364 L27.569,7.473 L27.459,7.581 L27.35,7.691 L27.24,7.8 z" fill="#467FF7"/>
    <path d="M27.631,8.409 L27.554,8.333 L27.479,8.256 L27.401,8.18 L27.326,8.103 L27.248,8.027 L27.173,7.95 L27.096,7.874 L27.02,7.797 L27.129,7.688 L27.238,7.579 L27.347,7.47 L27.456,7.361 L27.565,7.251 L27.675,7.142 L27.784,7.033 L27.893,6.924 L27.969,7.001 L28.046,7.076 L28.122,7.154 L28.199,7.229 L28.275,7.307 L28.352,7.382 L28.429,7.459 L28.505,7.535 L28.396,7.645 L28.287,7.753 L28.178,7.864 L28.069,7.973 L27.959,8.081 L27.85,8.191 L27.74,8.3 z" fill-opacity="0" stroke="#007FFF" stroke-width="1.5"/>
    <path d="M9.656,25.384 L9.58,25.307 L9.503,25.232 L9.427,25.154 L9.35,25.079 L9.275,25.001 L9.197,24.926 L9.122,24.849 L9.045,24.773 L10.902,22.916 L12.758,21.059 L14.615,19.202 L16.472,17.345 L18.328,15.489 L20.185,13.632 L22.041,11.775 L23.898,9.919 L23.975,9.995 L24.051,10.072 L24.128,10.148 L24.204,10.224 L24.281,10.301 L24.357,10.377 L24.434,10.454 L24.51,10.53 L22.654,12.387 L20.797,14.244 L18.939,16.101 L17.084,17.957 L15.227,19.814 L13.37,21.671 L11.513,23.527 z" fill="#467FF7"/>
    <path d="M10.156,25.884 L10.08,25.807 L10.003,25.732 L9.927,25.654 L9.85,25.579 L9.775,25.501 L9.697,25.426 L9.622,25.349 L9.545,25.273 L11.402,23.416 L13.258,21.559 L15.115,19.702 L16.972,17.845 L18.828,15.989 L20.685,14.132 L22.541,12.275 L24.398,10.419 L24.475,10.495 L24.551,10.572 L24.628,10.648 L24.704,10.724 L24.781,10.801 L24.857,10.877 L24.934,10.954 L25.01,11.03 L23.154,12.887 L21.297,14.744 L19.439,16.601 L17.584,18.457 L15.727,20.314 L13.87,22.171 L12.013,24.027 z" fill-opacity="0" stroke="#007FFF" stroke-width="1.5"/>
    <path d="M20.463,7.91 L20.387,7.833 L20.31,7.757 L20.234,7.68 L20.157,7.604 L20.081,7.527 L20.004,7.451 L19.928,7.374 L19.851,7.298 L20.398,6.752 L20.943,6.206 L21.489,5.66 L22.036,5.114 L22.582,4.568 L23.127,4.022 L23.674,3.475 L24.22,2.93 L24.296,3.006 L24.373,3.083 L24.449,3.159 L24.526,3.236 L24.602,3.311 L24.679,3.389 L24.755,3.464 L24.831,3.542 L24.285,4.088 L23.74,4.633 L23.194,5.179 L22.647,5.726 L22.101,6.272 L21.556,6.817 L21.009,7.364 z" fill="#467FF7"/>
    <path d="M20.963,8.41 L20.887,8.333 L20.81,8.257 L20.734,8.18 L20.657,8.104 L20.581,8.027 L20.504,7.951 L20.428,7.874 L20.351,7.798 L20.898,7.252 L21.443,6.706 L21.989,6.16 L22.536,5.614 L23.082,5.068 L23.627,4.522 L24.174,3.975 L24.72,3.43 L24.796,3.506 L24.873,3.583 L24.949,3.659 L25.026,3.736 L25.102,3.811 L25.179,3.889 L25.255,3.964 L25.331,4.042 L24.785,4.588 L24.24,5.133 L23.694,5.679 L23.147,6.226 L22.601,6.772 L22.056,7.317 L21.509,7.864 z" fill-opacity="0" stroke="#007FFF" stroke-width="1.5"/>
    <path d="M2.988,25.384 L2.912,25.307 L2.835,25.232 L2.759,25.154 L2.682,25.079 L2.606,25.001 L2.529,24.926 L2.453,24.849 L2.376,24.773 L4.233,22.916 L6.09,21.059 L7.946,19.202 L9.804,17.346 L11.66,15.489 L13.517,13.632 L15.374,11.776 L17.23,9.919 L17.307,9.996 L17.383,10.072 L17.46,10.149 L17.536,10.224 L17.613,10.302 L17.688,10.379 L17.766,10.454 L17.841,10.532 L15.986,12.387 L14.129,14.244 L12.272,16.101 L10.415,17.958 L8.558,19.814 L6.702,21.671 L4.845,23.527 z" fill="#467FF7"/>
    <path d="M3.488,25.884 L3.412,25.807 L3.335,25.732 L3.259,25.654 L3.182,25.579 L3.106,25.501 L3.029,25.426 L2.953,25.349 L2.876,25.273 L4.733,23.416 L6.59,21.559 L8.446,19.702 L10.304,17.846 L12.16,15.989 L14.017,14.132 L15.874,12.276 L17.73,10.419 L17.807,10.496 L17.883,10.572 L17.96,10.649 L18.036,10.724 L18.113,10.802 L18.188,10.879 L18.266,10.954 L18.341,11.032 L16.486,12.887 L14.629,14.744 L12.772,16.601 L10.915,18.458 L9.058,20.314 L7.202,22.171 L5.345,24.027 z" fill-opacity="0" stroke="#007FFF" stroke-width="1.5"/>
    <path d="M16.953,4.414 L16.877,4.337 L16.801,4.261 L16.723,4.184 L16.648,4.108 L16.57,4.031 L16.495,3.955 L16.417,3.878 L16.342,3.802 L16.56,3.583 L16.779,3.365 L16.997,3.147 L17.215,2.928 L17.434,2.709 L17.653,2.492 L17.87,2.273 L18.09,2.054 L18.166,2.131 L18.242,2.207 L18.319,2.284 L18.395,2.36 L18.472,2.437 L18.548,2.513 L18.624,2.59 L18.701,2.666 L18.482,2.885 L18.264,3.103 L18.046,3.321 L17.827,3.54 L17.609,3.758 L17.39,3.977 L17.171,4.196 z" fill="#467FF7"/>
    <path d="M17.453,4.914 L17.377,4.837 L17.301,4.761 L17.223,4.684 L17.148,4.608 L17.07,4.531 L16.995,4.455 L16.917,4.378 L16.842,4.302 L17.06,4.083 L17.279,3.865 L17.497,3.647 L17.715,3.428 L17.934,3.209 L18.153,2.992 L18.37,2.773 L18.59,2.554 L18.666,2.631 L18.742,2.707 L18.819,2.784 L18.895,2.86 L18.972,2.937 L19.048,3.013 L19.124,3.09 L19.201,3.166 L18.982,3.385 L18.764,3.603 L18.546,3.821 L18.327,4.04 L18.109,4.258 L17.89,4.477 L17.671,4.696 z" fill-opacity="0" stroke="#007FFF" stroke-width="1.5"/>
  </g>
</svg>
