<svg height="150" viewBox="0 0 150 150" width="150" xmlns="http://www.w3.org/2000/svg"><path d="m140.5 75.5c0 35.899-29.101 65-65 65s-65-29.101-65-65 29.101-65 65-65 65 29.101 65 65z" fill="#fff"/><path d="m140.5 75.5c0 35.899-29.101 65-65 65s-65-29.101-65-65 29.101-65 65-65 65 29.101 65 65z" fill="none" stroke="#050505" stroke-linejoin="round" stroke-width="2.5"/><path d="m56.436 75c0 4.142-3.358 7.5-7.5 7.5-4.143 0-7.5-3.358-7.5-7.5s3.357-7.5 7.5-7.5c4.142 0 7.5 3.358 7.5 7.5z"/><path d="m108.564 75c0 4.142-3.357 7.5-7.5 7.5-4.142 0-7.5-3.358-7.5-7.5s3.358-7.5 7.5-7.5c4.143 0 7.5 3.358 7.5 7.5z"/><g fill="none" stroke="#000"><path d="m79.882 11.022-8.125.028v8.338l8.146.041-.022-8.407zm.021 8.407h-14.08l-.059 4.818 19.475.027-.027-4.845z"/><path d="m79.882 139.958-8.125-.028v-8.337l8.146-.041-.022 8.406zm.021-8.406h-14.08l-.059-4.819 19.475-.027-.027 4.846z"/></g></svg>