<svg height="150" viewBox="0 0 150 150" width="150" xmlns="http://www.w3.org/2000/svg"><path d="m10 75c0-35.898 29.102-65 65-65 35.899 0 65 29.102 65 65 0 35.899-29.101 65-65 65-35.898 0-65-29.101-65-65z" fill="#fff"/><path d="m10 75c0-35.898 29.102-65 65-65 35.899 0 65 29.102 65 65 0 35.899-29.101 65-65 65-35.898 0-65-29.101-65-65z" fill="none" stroke="#050505" stroke-linejoin="round" stroke-width="2.5"/><path d="m93.565 72.23c0-4.142 3.358-7.5 7.5-7.5s7.5 3.358 7.5 7.5-3.358 7.5-7.5 7.5-7.5-3.358-7.5-7.5z"/><path d="m41.436 72.23c0-4.142 3.358-7.5 7.5-7.5s7.5 3.358 7.5 7.5-3.358 7.5-7.5 7.5-7.5-3.358-7.5-7.5z"/><path d="m65 110.686c0-5.523 4.478-10 10-10 5.523 0 10 4.477 10 10s-4.477 10-10 10c-5.522 0-10-4.477-10-10z"/></svg>