<svg height="150" viewBox="0 0 150 150" width="150" xmlns="http://www.w3.org/2000/svg"><path d="m140 75c0 35.898-29.102 65-65 65-35.899 0-65-29.102-65-65s29.101-65 65-65c35.898 0 65 29.102 65 65z" fill="#fff"/><path d="m140 75c0 35.898-29.102 65-65 65-35.899 0-65-29.102-65-65s29.101-65 65-65c35.898 0 65 29.102 65 65z" fill="none" stroke="#050505" stroke-linejoin="round" stroke-width="2.5"/><path d="m70.614 97.556h8.771v26.774h-8.771z"/><path d="m107.702 44.292 6.132 6.271-19.141 18.72-6.133-6.27z"/><path d="m42.298 44.292-6.133 6.271 19.141 18.72 6.133-6.27z"/></svg>