<svg height="1000" viewBox="0 0 1000 1000" width="1000" xmlns="http://www.w3.org/2000/svg"><path d="m53.184 557.5 159.256.548.175 159.452-160.23-.49z" fill="#dedede"/><path d="m53.184 557.5 159.256.548.175 159.452-160.23-.49z" fill="none" stroke="#050505" stroke-linejoin="round" stroke-width="2.5"/><path d="m298.184 557.5 159.256.548.175 159.452-159.769-.49z" fill="#dedede"/><path d="m298.184 557.5 159.256.548.175 159.452-159.769-.49z" fill="none" stroke="#050505" stroke-linejoin="round" stroke-width="2.5"/><path d="m543.184 557.5 159.256.548.175 159.452-159.769-.259z" fill="#dedede"/><path d="m543.184 557.5 159.256.548.175 159.452-159.769-.259z" fill="none" stroke="#050505" stroke-linejoin="round" stroke-width="2.5"/><path d="m788.184 557.5 159.256.548.175 159.452-159.769-.028z" fill="#dedede"/><path d="m788.184 557.5 159.256.548.175 159.452-159.769-.028z" fill="none" stroke="#050505" stroke-linejoin="round" stroke-width="2.5"/><path d="m53.184 295 159.256.548.175 159.452-160 .315z" fill="#dedede"/><path d="m53.184 295 159.256.548.175 159.452-160 .315z" fill="none" stroke="#050505" stroke-linejoin="round" stroke-width="2.5"/><path d="m298.184 295 159.256.548.175 159.452-159.673-.012z" fill="#dedede"/><path d="m298.184 295 159.256.548.175 159.452-159.673-.012z" fill="none" stroke="#050505" stroke-linejoin="round" stroke-width="2.5"/><path d="m543.184 295 159.256.548.175 159.452-159.673-.012z" fill="#dedede"/><path d="m543.184 295 159.256.548.175 159.452-159.673-.012z" fill="none" stroke="#050505" stroke-linejoin="round" stroke-width="2.5"/><path d="m947.047 455-159.257-.548-.175-159.452 160 .338z" fill="#dedede"/><path d="m947.047 455-159.257-.548-.175-159.452 160 .338z" fill="none" stroke="#050505" stroke-linejoin="round" stroke-width="2.5"/><path d="m53.184 32.5 159.256.548.175 159.452-160 .664z" fill="#dedede"/><path d="m53.184 32.5 159.256.548.175 159.452-160 .664z" fill="none" stroke="#050505" stroke-linejoin="round" stroke-width="2.5"/><path d="m298.184 32.5 159.256.548.175 159.452-160 .203z" fill="#dedede"/><path d="m298.184 32.5 159.256.548.175 159.452-160 .203z" fill="none" stroke="#050505" stroke-linejoin="round" stroke-width="2.5"/><path d="m543.184 32.5 159.256.548.175 159.452-160-.012z" fill="#dedede"/><path d="m543.184 32.5 159.256.548.175 159.452-160-.012z" fill="none" stroke="#050505" stroke-linejoin="round" stroke-width="2.5"/><path d="m788.184 32.5 159.256.548.175 159.452-160-.012z" fill="#dedede"/><path d="m788.184 32.5 159.256.548.175 159.452-160-.012z" fill="none" stroke="#050505" stroke-linejoin="round" stroke-width="2.5"/><path d="m75.066 323.068 113.748.197c4.596.009 7.194 2.624 7.31 6.801l.559 43.966c-2.045 5.346-2.394 5.511-7.438 6.32l-28.054.162.141 22.602c-5.362 31.753-50.918 31.837-57.281-.245l-.559-22.33-27.819-.234c-3.362-.077-7.621-5.355-7.078-9.337l.4-40.71c.378-3.459 2.16-6.012 6.071-7.192z" fill="#fff"/><path d="m75.066 323.068 113.748.197c4.596.009 7.194 2.624 7.31 6.801l.559 43.966c-2.045 5.346-2.394 5.511-7.438 6.32l-28.054.162.141 22.602c-5.362 31.753-50.918 31.837-57.281-.245l-.559-22.33-27.819-.234c-3.362-.077-7.621-5.355-7.078-9.337l.4-40.71c.378-3.459 2.16-6.012 6.071-7.192z" fill="none" stroke="#000" stroke-width="2.5"/><path d="m91.715 339.566h8.771v26.774h-8.771z"/><path d="m164.253 339.566h8.771v26.774h-8.771z"/><path d="m139.999 402.7c0 4.142-3.358 7.5-7.5 7.5s-7.5-3.358-7.5-7.5 3.358-7.5 7.5-7.5 7.5 3.358 7.5 7.5z"/><path d="m75.066 84.074 113.748.197c4.596.009 7.194 2.624 7.31 6.802l.559 43.965c-2.045 5.346-2.394 5.511-7.438 6.32l-113.572-.045c-3.362-.077-7.621-5.355-7.078-9.337l.4-40.71c.378-3.459 2.16-6.012 6.071-7.192z" fill="#fff"/><path d="m75.066 84.074 113.748.197c4.596.009 7.194 2.624 7.31 6.802l.559 43.965c-2.045 5.346-2.394 5.511-7.438 6.32l-113.572-.045c-3.362-.077-7.621-5.355-7.078-9.337l.4-40.71c.378-3.459 2.16-6.012 6.071-7.192z" fill="none" stroke="#000" stroke-width="2.5"/><path d="m91.715 100.573h8.771v26.774h-8.771z"/><path d="m164.253 100.573h8.771v26.774h-8.771z"/><path d="m565.067 49.148 113.748.197c4.596.009 7.193 2.624 7.31 6.801l.559 113.818c-2.045 5.346-2.394 5.512-7.438 6.32l-113.572-.044c-3.362-.078-7.621-5.355-7.078-9.337l.4-110.563c.378-3.46 2.16-6.013 6.071-7.192z" fill="#fff"/><path d="m565.067 49.148 113.748.197c4.596.009 7.193 2.624 7.31 6.801l.559 113.818c-2.045 5.346-2.394 5.512-7.438 6.32l-113.572-.044c-3.362-.078-7.621-5.355-7.078-9.337l.4-110.563c.378-3.46 2.16-6.013 6.071-7.192z" fill="none" stroke="#000" stroke-width="2.5"/><path d="m605.69 139.931v8.771h-26.774v-8.771z"/><path d="m666.151 139.931v8.771h-26.774v-8.771z"/><path d="m616.085 74.501h12.688v26.774h-12.688z"/><path d="m810.182 609.074 113.747.197c4.597.009 7.194 2.624 7.311 6.801l.559 43.966c-2.045 5.346-2.395 5.511-7.438 6.32l-113.573-.045c-3.361-.077-7.62-5.355-7.077-9.337l.4-40.71c.377-3.459 2.16-6.012 6.071-7.192z" fill="#fff"/><path d="m810.182 609.074 113.747.197c4.597.009 7.194 2.624 7.311 6.801l.559 43.966c-2.045 5.346-2.395 5.511-7.438 6.32l-113.573-.045c-3.361-.077-7.62-5.355-7.077-9.337l.4-40.71c.377-3.459 2.16-6.012 6.071-7.192z" fill="none" stroke="#000" stroke-width="2.5"/><path d="m875.231 637.5c0 4.142-3.358 7.5-7.5 7.5s-7.5-3.358-7.5-7.5 3.358-7.5 7.5-7.5 7.5 3.358 7.5 7.5z"/><path d="m845.115 637.5c0 4.142-3.357 7.5-7.5 7.5-4.142 0-7.5-3.358-7.5-7.5s3.358-7.5 7.5-7.5c4.143 0 7.5 3.358 7.5 7.5z"/><path d="m905.115 637.5c0 4.142-3.357 7.5-7.5 7.5-4.142 0-7.5-3.358-7.5-7.5s3.358-7.5 7.5-7.5c4.143 0 7.5 3.358 7.5 7.5z"/><path d="m197.5 637.5c0 35.898-29.102 65-65 65-35.899 0-65-29.102-65-65 0-35.899 29.101-65 65-65 35.898 0 65 29.101 65 65z" fill="#fff"/><path d="m197.5 637.5c0 35.898-29.102 65-65 65-35.899 0-65-29.102-65-65 0-35.899 29.101-65 65-65 35.898 0 65 29.101 65 65z" fill="none" stroke="#050505" stroke-linejoin="round" stroke-width="2.5"/><path d="m113.936 637.5c0 4.142-3.358 7.5-7.5 7.5-4.143 0-7.5-3.358-7.5-7.5s3.357-7.5 7.5-7.5c4.142 0 7.5 3.358 7.5 7.5z"/><path d="m166.064 637.5c0 4.142-3.357 7.5-7.5 7.5-4.142 0-7.5-3.358-7.5-7.5s3.358-7.5 7.5-7.5c4.143 0 7.5 3.358 7.5 7.5z"/><path d="m442.731 637.5c0 35.898-29.102 65-65 65-35.899 0-65-29.102-65-65s29.101-65 65-65c35.898 0 65 29.102 65 65z" fill="#fff"/><path d="m442.731 637.5c0 35.898-29.102 65-65 65-35.899 0-65-29.102-65-65s29.101-65 65-65c35.898 0 65 29.102 65 65z" fill="none" stroke="#050505" stroke-linejoin="round" stroke-width="2.5"/><path d="m359.166 637.5c0 4.142-3.357 7.5-7.5 7.5-4.142 0-7.5-3.358-7.5-7.5s3.358-7.5 7.5-7.5c4.143 0 7.5 3.358 7.5 7.5z"/><path d="m411.295 637.5c0 4.142-3.358 7.5-7.5 7.5s-7.5-3.358-7.5-7.5 3.358-7.5 7.5-7.5 7.5 3.358 7.5 7.5z"/><path d="m442.779 375c0 35.899-29.102 65-65 65-35.899 0-65-29.101-65-65 0-35.898 29.101-65 65-65 35.898 0 65 29.102 65 65z" fill="#fff"/><path d="m442.779 375c0 35.899-29.102 65-65 65-35.899 0-65-29.101-65-65 0-35.898 29.101-65 65-65 35.898 0 65 29.102 65 65z" fill="none" stroke="#050505" stroke-linejoin="round" stroke-width="2.5"/><path d="m359.214 375c0 4.142-3.358 7.5-7.5 7.5s-7.5-3.358-7.5-7.5 3.358-7.5 7.5-7.5 7.5 3.358 7.5 7.5z"/><path d="m411.343 375c0 4.142-3.358 7.5-7.5 7.5s-7.5-3.358-7.5-7.5 3.358-7.5 7.5-7.5 7.5 3.358 7.5 7.5z"/><path d="m385.279 339.132c0 4.142-3.358 7.5-7.5 7.5-4.143 0-7.5-3.358-7.5-7.5s3.357-7.5 7.5-7.5c4.142 0 7.5 3.358 7.5 7.5z" fill="none" stroke="#000" stroke-linejoin="round" stroke-width="2.5"/><path d="m442.615 112.601c0 35.899-29.101 65-65 65-35.898 0-65-29.101-65-65 0-35.898 29.102-65 65-65 35.899 0 65 29.102 65 65z" fill="#fff"/><path d="m442.615 112.601c0 35.899-29.101 65-65 65-35.898 0-65-29.101-65-65 0-35.898 29.102-65 65-65 35.899 0 65 29.102 65 65z" fill="none" stroke="#050505" stroke-linejoin="round" stroke-width="2.5"/><path d="m359.051 127.373c0 4.142-3.358 7.5-7.5 7.5s-7.5-3.358-7.5-7.5 3.358-7.5 7.5-7.5 7.5 3.358 7.5 7.5z"/><path d="m411.18 127.373c0 4.142-3.358 7.5-7.5 7.5s-7.5-3.358-7.5-7.5 3.358-7.5 7.5-7.5 7.5 3.358 7.5 7.5z"/><path d="m387.615 88.918c0 5.523-4.477 10-10 10-5.522 0-10-4.477-10-10s4.478-10 10-10c5.523 0 10 4.477 10 10z"/><path d="m802.615 375c0-35.898 29.102-65 65-65 35.899 0 65 29.102 65 65 0 35.899-29.101 65-65 65-35.898 0-65-29.101-65-65z" fill="#fff"/><path d="m802.615 375c0-35.898 29.102-65 65-65 35.899 0 65 29.102 65 65 0 35.899-29.101 65-65 65-35.898 0-65-29.101-65-65z" fill="none" stroke="#050505" stroke-linejoin="round" stroke-width="2.5"/><path d="m886.18 372.23c0-4.142 3.358-7.5 7.5-7.5s7.5 3.358 7.5 7.5-3.358 7.5-7.5 7.5-7.5-3.358-7.5-7.5z"/><path d="m834.051 372.23c0-4.142 3.358-7.5 7.5-7.5s7.5 3.358 7.5 7.5-3.358 7.5-7.5 7.5-7.5-3.358-7.5-7.5z"/><path d="m857.615 410.686c0-5.523 4.478-10 10-10 5.523 0 10 4.477 10 10s-4.477 10-10 10c-5.522 0-10-4.477-10-10z"/><path d="m687.779 375c0 35.898-29.102 65-65 65-35.899 0-65-29.102-65-65s29.101-65 65-65c35.898 0 65 29.102 65 65z" fill="#fff"/><path d="m687.779 375c0 35.898-29.102 65-65 65-35.899 0-65-29.102-65-65s29.101-65 65-65c35.898 0 65 29.102 65 65z" fill="none" stroke="#050505" stroke-linejoin="round" stroke-width="2.5"/><path d="m618.393 397.556h8.771v26.774h-8.771z"/><path d="m655.481 344.292 6.132 6.271-19.141 18.72-6.133-6.27z"/><path d="m590.077 344.292-6.133 6.271 19.141 18.72 6.133-6.27z"/><path d="m382.112 573.022-8.125.028v8.338l8.147.041zm.022 8.407h-14.08l-.059 4.818 19.475.027-.028-4.845z" fill="none" stroke="#000"/><path d="m382.112 701.958-8.125-.028v-8.337l8.147-.041zm.022-8.406h-14.08l-.059-4.819 19.475-.027-.028 4.846z" fill="none" stroke="#000"/><path d="m575.716 576.119h94.329c21.35 0 17.903 122.791 0 122.791h-94.329c-20.61 0-17.56-122.791 0-122.791z" fill="#fff"/><path d="m575.716 576.119h94.329c21.35 0 17.903 122.791 0 122.791h-94.329c-20.61 0-17.56-122.791 0-122.791z" fill="none" stroke="#000" stroke-linejoin="round" stroke-width="2.5"/><path d="m618.701 652.813h8.771v26.774h-8.771z"/><path d="m596.915 602.795 7.601 4.377-13.361 23.202-7.6-4.376z"/><path d="m649.257 602.796-7.6 4.376 13.36 23.203 7.601-4.377z"/><path d="m832.267 82.264 70.749-.163 34.245 30.24-33.97 30.558h-71.075l-34.246-30.885z" fill="#fff"/><path d="m832.267 82.264 70.749-.163 34.245 30.24-33.97 30.558h-71.075l-34.246-30.885z" fill="none" stroke="#000" stroke-linejoin="round" stroke-width="2.5"/><path d="m845.899 112.5c0 4.142-3.358 7.5-7.5 7.5s-7.5-3.358-7.5-7.5 3.358-7.5 7.5-7.5 7.5 3.358 7.5 7.5z"/><path d="m906.833 112.5c0 4.142-3.358 7.5-7.5 7.5s-7.5-3.358-7.5-7.5 3.358-7.5 7.5-7.5 7.5 3.358 7.5 7.5z"/><path d="m875.115 127.373c0 4.142-3.357 7.5-7.5 7.5-4.142 0-7.5-3.358-7.5-7.5s3.358-7.5 7.5-7.5c4.143 0 7.5 3.358 7.5 7.5z"/><text transform="translate(131.297 211.991)"><tspan font-family="Helvetica" font-size="22.5" x="-8.004" y="8">A</tspan></text><text transform="translate(377.138 211.379)"><tspan font-family="Helvetica" font-size="22.5" x="-8.624" y="8">D</tspan></text><text transform="translate(623.44 210.726)"><tspan font-family="Helvetica" font-size="22.5" x="-9.251" y="8">G</tspan></text><text transform="translate(872.109 208.115)"><tspan font-family="Helvetica" font-size="22.5" x="-6.125" y="8">J</tspan></text><text transform="translate(866.901 471.205)"><tspan font-family="Helvetica" font-size="22.5" x="-8.004" y="8">K</tspan></text><text transform="translate(622.944 471.205)"><tspan font-family="Helvetica" font-size="22.5" x="-8.624" y="8">H</tspan></text><text transform="translate(378.29 471.205)"><tspan font-family="Helvetica" font-size="22.5" x="-8.004" y="8">E</tspan></text><text transform="translate(132.594 470.552)"><tspan font-family="Helvetica" font-size="22.5" x="-8.004" y="8">B</tspan></text><text transform="translate(133.247 734.948)"><tspan font-family="Helvetica" font-size="22.5" x="-8.624" y="8">C</tspan></text><text transform="translate(378.181 734.948)"><tspan font-family="Helvetica" font-size="22.5" x="-7.372" y="8">F</tspan></text><text transform="translate(623.039 734.296)"><tspan font-family="Helvetica" font-size="22.5" x="-3.626" y="8">I</tspan></text><text transform="translate(867.176 735.601)"><tspan font-family="Helvetica" font-size="22.5" x="-6.757" y="8">L</tspan></text><path d="m53.816 789.121 159.256.548.175 159.452-160 .203z" fill="#dedede"/><path d="m53.816 789.121 159.256.548.175 159.452-160 .203z" fill="none" stroke="#050505" stroke-linejoin="round" stroke-width="2.5"/><path d="m198.247 869.223c0 35.898-29.101 65-65 65-35.898 0-65-29.102-65-65 0-35.899 29.102-65 65-65 35.899 0 65 29.101 65 65z" fill="#fff"/><path d="m198.247 869.223c0 35.898-29.101 65-65 65-35.898 0-65-29.102-65-65 0-35.899 29.102-65 65-65 35.899 0 65 29.101 65 65z" fill="none" stroke="#050505" stroke-linejoin="round" stroke-width="2.5"/><path d="m115.186 885.245c0 4.832-3.918 8.75-8.75 8.75-4.833 0-8.75-3.918-8.75-8.75 0-4.833 3.917-8.75 8.75-8.75 4.832 0 8.75 3.917 8.75 8.75z"/><path d="m168.564 885.245c0 4.832-3.917 8.75-8.75 8.75-4.832 0-8.75-3.918-8.75-8.75 0-4.833 3.918-8.75 8.75-8.75 4.833 0 8.75 3.917 8.75 8.75z"/><path d="m144.247 844.539c0 6.075-4.925 11-11 11s-11-4.925-11-11 4.925-11 11-11 11 4.925 11 11z"/><text transform="translate(133.247 976.182)"><tspan fill="#040b3e" font-family="ArialMT" font-size="24" x="-9.996" y="4.667">M</tspan></text><path d="m297.706 789.121 159.257.548.175 159.452-160-.011z" fill="#dedede"/><path d="m297.706 789.121 159.257.548.175 159.452-160-.011z" fill="none" stroke="#050505" stroke-linejoin="round" stroke-width="2.5"/><path d="m341.79 838.885 70.748-.163 34.245 30.24-33.969 30.559h-71.076l-34.246-30.885z" fill="#fff"/><path d="m341.79 838.885 70.748-.163 34.245 30.24-33.969 30.559h-71.076l-34.246-30.885z" fill="none" stroke="#000" stroke-linejoin="round" stroke-width="2.5"/><path d="m359.051 869.121c0 4.142-3.358 7.5-7.5 7.5s-7.5-3.358-7.5-7.5 3.358-7.5 7.5-7.5 7.5 3.358 7.5 7.5z"/><path d="m411.343 869.223c0 4.142-3.358 7.5-7.5 7.5s-7.5-3.358-7.5-7.5 3.358-7.5 7.5-7.5 7.5 3.358 7.5 7.5z"/><path d="m384.638 882.016c0 4.142-3.358 7.5-7.5 7.5-4.143 0-7.5-3.358-7.5-7.5s3.357-7.5 7.5-7.5c4.142 0 7.5 3.358 7.5 7.5z"/><text transform="translate(377.138 976.182)"><tspan fill="#040b3e" font-family="ArialMT" font-size="24" x="-8.666" y="4.667">N</tspan></text><path d="m543.184 789.121 159.256.548.175 159.452-160 .203z" fill="#dedede"/><path d="m543.184 789.121 159.256.548.175 159.452-160 .203z" fill="none" stroke="#050505" stroke-linejoin="round" stroke-width="2.5"/><path d="m687.615 869.223c0 35.898-29.101 65-65 65-35.898 0-65-29.102-65-65 0-35.899 29.102-65 65-65 35.899 0 65 29.101 65 65z" fill="#fff"/><path d="m687.615 869.223c0 35.898-29.101 65-65 65-35.898 0-65-29.102-65-65 0-35.899 29.102-65 65-65 35.899 0 65 29.101 65 65z" fill="none" stroke="#050505" stroke-linejoin="round" stroke-width="2.5"/><path d="m604.051 883.995c0 4.142-3.358 7.5-7.5 7.5s-7.5-3.358-7.5-7.5c0-4.143 3.358-7.5 7.5-7.5s7.5 3.357 7.5 7.5z"/><path d="m656.18 883.995c0 4.142-3.358 7.5-7.5 7.5s-7.5-3.358-7.5-7.5c0-4.143 3.358-7.5 7.5-7.5s7.5 3.357 7.5 7.5z"/><path d="m630.115 848.039c0 4.142-3.357 7.5-7.5 7.5-4.142 0-7.5-3.358-7.5-7.5s3.358-7.5 7.5-7.5c4.143 0 7.5 3.358 7.5 7.5z"/><text transform="translate(622.615 976.182)"><tspan fill="#040b3e" font-family="ArialMT" font-size="24" x="-9.334" y="4.667">O</tspan></text></svg>