<svg height="150" viewBox="0 0 150 150" width="150" xmlns="http://www.w3.org/2000/svg"><path d="m39.006 43.365 70.749-.163 34.245 30.24-33.97 30.558h-71.075l-34.246-30.885z" fill="#fff"/><path d="m39.006 43.365 70.749-.163 34.245 30.24-33.97 30.558h-71.075l-34.246-30.885z" fill="none" stroke="#000" stroke-linejoin="round" stroke-width="2.5"/><path d="m52.638 73.601c0 4.142-3.358 7.5-7.5 7.5s-7.5-3.358-7.5-7.5 3.358-7.5 7.5-7.5 7.5 3.358 7.5 7.5z"/><path d="m113.572 73.601c0 4.142-3.358 7.5-7.5 7.5s-7.5-3.358-7.5-7.5 3.358-7.5 7.5-7.5 7.5 3.358 7.5 7.5z"/><path d="m81.854 88.474c0 4.142-3.357 7.5-7.5 7.5-4.142 0-7.5-3.358-7.5-7.5s3.358-7.5 7.5-7.5c4.143 0 7.5 3.358 7.5 7.5z"/></svg>