<svg height="40" viewBox="0 0 180 40" width="180" xmlns="http://www.w3.org/2000/svg"><path d="m27.884 32.975-.076-.077-.077-.075-.077-.078-.076-.075-.077-.077-.076-.076-.077-.077-.076-.076.219-.219.219-.219.218-.218.218-.219.219-.218.218-.218.218-.219.22-.218.075.075.077.078.076.075.077.077.076.076.077.077.076.078.077.075-.219.219-.218.219-.218.217-.22.219-.218.219-.218.218-.219.218z" fill="#467ff7"/><path d="m27.884 32.975-.076-.077-.077-.075-.077-.078-.076-.075-.077-.077-.076-.076-.077-.077-.076-.076.219-.219.219-.219.218-.218.218-.219.219-.218.218-.218.218-.219.22-.218.075.075.077.078.076.075.077.077.076.076.077.077.076.078.077.075-.219.219-.218.219-.218.217-.22.219-.218.219-.218.218-.219.218z" fill="none" stroke="#007fff" stroke-width="1.5"/><path d="m25.262 35.596-.077-.076-.076-.077-.077-.076-.075-.077-.078-.076-.075-.077-.077-.076-.076-.077.218-.218.218-.218.219-.219.218-.218.218-.219.22-.219.218-.217.218-.219.077.076.075.077.078.076.075.077.078.076.075.077.077.076.076.077-.218.218-.218.218-.219.219-.218.218-.218.219-.22.219-.217.217z" fill="#467ff7"/><path d="m25.262 35.596-.077-.076-.076-.077-.077-.076-.075-.077-.078-.076-.075-.077-.077-.076-.076-.077.218-.218.218-.218.219-.219.218-.218.218-.219.22-.219.218-.217.218-.219.077.076.075.077.078.076.075.077.078.076.075.077.077.076.076.077-.218.218-.218.218-.219.219-.218.218-.218.219-.22.219-.217.217z" fill="none" stroke="#007fff" stroke-width="1.5"/><path d="m22.089 32.102-.076-.077-.077-.076-.076-.077-.077-.076-.076-.077-.077-.076-.076-.077-.077-.077 1.202-1.2 1.202-1.202 1.202-1.202 1.2-1.2 1.202-1.202 1.202-1.202 1.202-1.202 1.202-1.2.075.075.077.078.076.075.077.077.076.076.077.077.076.076.077.077-1.202 1.201-1.202 1.201-1.201 1.202-1.202 1.202-1.201 1.201-1.202 1.201-1.201 1.202z" fill="#467ff7"/><path d="m22.089 32.102-.076-.077-.077-.076-.076-.077-.077-.076-.076-.077-.077-.076-.076-.077-.077-.077 1.202-1.2 1.202-1.202 1.202-1.202 1.2-1.2 1.202-1.202 1.202-1.202 1.202-1.202 1.202-1.2.075.075.077.078.076.075.077.077.076.076.077.077.076.076.077.077-1.202 1.201-1.202 1.201-1.201 1.202-1.202 1.202-1.201 1.201-1.202 1.201-1.201 1.202z" fill="none" stroke="#007fff" stroke-width="1.5"/><path d="m18.044 29.48-.078-.077-.075-.075-.077-.078-.076-.075-.077-.078-.076-.075-.077-.077-.076-.076 1.309-1.311 1.311-1.311 1.311-1.311 1.311-1.311 1.311-1.31 1.31-1.311 1.311-1.31 1.311-1.31.076.075.077.078.076.075.077.077.076.076.077.077.076.076.077.077-1.311 1.311-1.311 1.31-1.311 1.311-1.31 1.31-1.311 1.311-1.311 1.311-1.31 1.311z" fill="#467ff7"/><path d="m18.044 29.48-.078-.077-.075-.075-.077-.078-.076-.075-.077-.078-.076-.075-.077-.077-.076-.076 1.309-1.311 1.311-1.311 1.311-1.311 1.311-1.311 1.311-1.31 1.31-1.311 1.311-1.31 1.311-1.31.076.075.077.078.076.075.077.077.076.076.077.077.076.076.077.077-1.311 1.311-1.311 1.31-1.311 1.311-1.31 1.31-1.311 1.311-1.311 1.311-1.31 1.311z" fill="none" stroke="#007fff" stroke-width="1.5"/><path d="m32.346 8.51-.078-.076-.075-.077-.078-.076-.075-.077-.077-.076-.076-.077-.077-.076-.076-.077.109-.109.109-.109.109-.109.109-.109.109-.109.109-.11.11-.109.109-.109.077.077.076.075.076.078.077.075.076.077.077.076.076.077.077.076-.109.11-.109.109-.11.11-.109.109-.109.108-.109.11-.11.109z" fill="#467ff7"/><path d="m32.346 8.51-.078-.076-.075-.077-.078-.076-.075-.077-.077-.076-.076-.077-.077-.076-.076-.077.109-.109.109-.109.109-.109.109-.109.109-.109.109-.11.11-.109.109-.109.077.077.076.075.076.078.077.075.076.077.077.076.076.077.077.076-.109.11-.109.109-.11.11-.109.109-.109.108-.109.11-.11.109z" fill="none" stroke="#007fff" stroke-width="1.5"/><path d="m28.85 12.005-.077-.076-.075-.077-.078-.076-.075-.077-.078-.076-.075-.077-.077-.076-.076-.077.109-.109.109-.109.109-.109.109-.109.109-.11.11-.109.109-.109.109-.109.076.077.077.075.076.078.077.075.076.078.077.075.077.077.076.076-.109.11-.109.108-.109.111-.109.109-.11.108-.109.11-.11.109z" fill="#467ff7"/><path d="m28.85 12.005-.077-.076-.075-.077-.078-.076-.075-.077-.078-.076-.075-.077-.077-.076-.076-.077.109-.109.109-.109.109-.109.109-.109.109-.11.11-.109.109-.109.109-.109.076.077.077.075.076.078.077.075.076.078.077.075.077.077.076.076-.109.11-.109.108-.109.111-.109.109-.11.108-.109.11-.11.109z" fill="none" stroke="#007fff" stroke-width="1.5"/><path d="m11.375 29.48-.076-.077-.077-.075-.076-.078-.077-.075-.075-.078-.078-.075-.075-.077-.077-.076 1.857-1.857 1.856-1.857 1.857-1.857 1.857-1.857 1.856-1.856 1.857-1.857 1.856-1.857 1.857-1.856.077.076.076.077.077.076.076.076.077.077.076.076.077.077.076.076-1.856 1.857-1.857 1.857-1.858 1.857-1.855 1.856-1.857 1.857-1.857 1.857-1.857 1.856z" fill="#467ff7"/><path d="m11.375 29.48-.076-.077-.077-.075-.076-.078-.077-.075-.075-.078-.078-.075-.075-.077-.077-.076 1.857-1.857 1.856-1.857 1.857-1.857 1.857-1.857 1.856-1.856 1.857-1.857 1.856-1.857 1.857-1.856.077.076.076.077.077.076.076.076.077.077.076.076.077.077.076.076-1.856 1.857-1.857 1.857-1.858 1.857-1.855 1.856-1.857 1.857-1.857 1.857-1.857 1.856z" fill="none" stroke="#007fff" stroke-width="1.5"/><path d="m22.182 12.006-.076-.077-.077-.076-.076-.077-.077-.076-.076-.077-.077-.076-.076-.077-.077-.076.547-.546.545-.546.546-.546.547-.546.546-.546.545-.546.547-.547.546-.545.076.076.077.077.076.076.077.077.076.075.077.078.076.075.076.078-.546.546-.545.545-.546.546-.547.547-.546.546-.545.545-.547.547z" fill="#467ff7"/><path d="m22.182 12.006-.076-.077-.077-.076-.076-.077-.077-.076-.076-.077-.077-.076-.076-.077-.077-.076.547-.546.545-.546.546-.546.547-.546.546-.546.545-.546.547-.547.546-.545.076.076.077.077.076.076.077.077.076.075.077.078.076.075.076.078-.546.546-.545.545-.546.546-.547.547-.546.546-.545.545-.547.547z" fill="none" stroke="#007fff" stroke-width="1.5"/><path d="m4.707 29.48-.076-.077-.077-.075-.076-.078-.077-.075-.076-.078-.077-.075-.076-.077-.077-.076 1.857-1.857 1.857-1.857 1.856-1.857 1.858-1.856 1.856-1.857 1.857-1.857 1.857-1.856 1.856-1.857.077.077.076.076.077.077.076.075.077.078.075.077.078.075.075.078-1.855 1.855-1.857 1.857-1.857 1.857-1.857 1.857-1.857 1.856-1.856 1.857-1.857 1.856z" fill="#467ff7"/><path d="m4.707 29.48-.076-.077-.077-.075-.076-.078-.077-.075-.076-.078-.077-.075-.076-.077-.077-.076 1.857-1.857 1.857-1.857 1.856-1.857 1.858-1.856 1.856-1.857 1.857-1.857 1.857-1.856 1.856-1.857.077.077.076.076.077.077.076.075.077.078.075.077.078.075.075.078-1.855 1.855-1.857 1.857-1.857 1.857-1.857 1.857-1.857 1.856-1.856 1.857-1.857 1.856z" fill="none" stroke="#007fff" stroke-width="1.5"/><path d="m18.672 8.51-.076-.077-.076-.076-.078-.077-.075-.076-.078-.077-.075-.076-.078-.077-.075-.076.218-.219.219-.218.218-.218.218-.219.219-.219.219-.217.217-.219.22-.219.076.077.076.076.077.077.076.076.077.077.076.076.076.077.077.076-.219.219-.218.218-.218.218-.219.219-.218.218-.219.219-.219.219z" fill="#467ff7"/><path d="m18.672 8.51-.076-.077-.076-.076-.078-.077-.075-.076-.078-.077-.075-.076-.078-.077-.075-.076.218-.219.219-.218.218-.218.218-.219.219-.219.219-.217.217-.219.22-.219.076.077.076.076.077.077.076.076.077.077.076.076.076.077.077.076-.219.219-.218.218-.218.218-.219.219-.218.218-.219.219-.219.219z" fill="none" stroke="#007fff" stroke-width="1.5"/><g fill="#1c244b"><path d="m48.011 27.922h.022c2.684 0 4.928-1.32 6.138-3.322l-2.134-1.562c-.814 1.408-2.178 2.244-3.916 2.244h-.022c-2.838 0-4.686-2.156-4.686-5.236v-.11c0-3.124 1.826-5.258 4.708-5.258h.022c1.694 0 2.926.792 3.806 2.266l2.2-1.584c-1.32-2.024-3.476-3.322-6.138-3.322-4.444 0-7.59 3.344-7.59 7.898v.088c0 4.554 3.124 7.898 7.59 7.898z"/><path d="m61.343 27.878h.176c3.52 0 6.05-2.398 6.05-5.764v-.308c0-3.366-2.53-5.764-6.05-5.764h-.176c-3.52 0-6.05 2.398-6.05 5.764v.308c0 3.366 2.53 5.764 6.05 5.764zm.022-2.156c-1.87 0-3.212-1.518-3.212-3.652v-.22c0-2.134 1.342-3.652 3.212-3.652h.132c1.892 0 3.234 1.518 3.234 3.652v.22c0 2.134-1.364 3.652-3.234 3.652z"/><path d="m74.037 27.9h.044c1.694 0 3.146-.748 4.136-1.936.022.506.176 1.276.33 1.716h2.156v-11.44h-2.728v6.138c0 1.936-1.188 3.146-2.992 3.146h-.044c-1.518 0-2.222-.902-2.222-2.53v-6.754h-2.728v7.326c0 2.772 1.43 4.334 4.048 4.334z"/><path d="m84.003 27.68h2.728v-6.182c0-1.848 1.21-3.102 3.036-3.102h.088c1.606 0 2.31.902 2.31 2.552v6.732h2.728v-7.304c0-2.772-1.452-4.356-4.136-4.356h-.066c-1.562 0-3.102.66-4.18 1.958-.044-.506-.198-1.276-.352-1.738h-2.156z"/><path d="m101.889 27.79c.88 0 2.112-.132 2.816-.44v-2.156c-.462.132-1.496.242-2.068.242-1.056 0-1.65-.418-1.65-1.672v-5.324h3.608v-2.2h-3.586v-2.97l-2.706.33v2.662c-.528.066-1.1.198-1.518.33v1.848h1.518v5.83c0 2.42 1.386 3.52 3.586 3.52z"/><path d="m106.905 27.68h2.728v-6.072c0-1.76 1.078-2.86 3.058-2.86.242 0 .506.044.726.132v-2.64h-.264c-1.584 0-2.882.616-3.762 1.628-.022-.506-.176-1.188-.33-1.628h-2.156z"/><path d="m117.311 32.102c2.772 0 3.916-1.936 4.554-3.784l4.202-12.078h-2.772l-2.794 8.778h-.154l-3.366-8.778h-2.904l4.95 11.946c-.572 1.012-1.32 1.606-2.244 1.606-.55 0-1.056-.176-1.584-.44v2.332c.638.33 1.496.418 2.112.418z"/><path d="m129.763 27.68h3.696l2.706-10.472h.154l2.684 10.472h3.696l3.52-15.4h-2.948l-2.508 12.1h-.11l-3.212-12.1h-2.442l-3.168 12.1h-.132l-2.398-12.1h-2.948z"/><path d="m149.629 14.7c.968 0 1.672-.616 1.672-1.474 0-.88-.704-1.496-1.672-1.496-.946 0-1.606.616-1.606 1.496 0 .858.66 1.474 1.606 1.474zm-1.364 12.98h2.728v-11.44h-2.728z"/><path d="m158.561 27.9c2.75 0 4.598-1.364 4.598-3.542 0-2.398-2.244-3.014-4.18-3.476-1.892-.462-2.794-.77-2.794-1.54 0-.66.55-1.1 1.716-1.1 1.188 0 2.574.462 3.476 1.144l1.298-1.914c-1.232-.924-2.97-1.452-4.62-1.452-2.662 0-4.378 1.32-4.378 3.454 0 2.002 1.672 2.662 3.322 3.102 2.2.682 3.542.77 3.542 1.848 0 .792-.704 1.254-1.98 1.254-1.386 0-2.948-.528-4.004-1.386l-1.364 1.958c1.452 1.1 3.366 1.65 5.368 1.65z"/><path d="m170.573 27.878h.198c1.892 0 3.872-.814 4.95-2.112l-1.518-1.65c-.66.836-1.936 1.474-3.344 1.474h-.11c-1.848 0-3.168-1.122-3.366-2.772v-.022h8.734v-1.474c0-3.08-2.288-5.28-5.456-5.28h-.132c-3.366 0-5.852 2.464-5.852 5.83v.308c0 3.366 2.42 5.698 5.896 5.698zm-3.124-6.908c.308-1.694 1.496-2.794 3.08-2.794h.022c1.672 0 2.838 1.166 2.97 2.794z"/></g></svg>